# xmcd
# Track frame offsets:
# 150
# 24640
# 39882
# 56432
# 67177
# 81050
# 96990
# 121652
# 138592
# 164675
#
# Disc length: 2454 seconds
# Revision: 0
# Processed by: cddbd v1.4PL0 Copyright (c) Steve Scherf et al.
# Submitted via: VisiTrax 2.9.5.181 - For more info visit www.synapsa.com
#
DISCID=8409940a
DTITLE=Yank Rachell - Blues Mandolin Man
DYEAR=1986
DGENRE=
TTITLE0=My Baby's Gone
TTITLE1=Moonshine Wiskey
TTITLE2=She Changed The Lock
TTITLE3=Bugle Call
TTITLE4=Dreamy Eyed Woman
TTITLE5=Cigarette Blues
TTITLE6=Make My Love Come Down
TTITLE7=Black Snake
TTITLE8=Des Moines, Iowa
TTITLE9=Wadie Green
EXTD=Random Chance Records Reissue
EXTT0=
EXTT1=
EXTT2=
EXTT3=
EXTT4=
EXTT5=
EXTT6=
EXTT7=
EXTT8=
EXTT9=
PLAYORDER=
